<svg width="24" height="24" viewBox="0 0 24 24" fill="none" xmlns="http://www.w3.org/2000/svg">
<path fill-rule="evenodd" clip-rule="evenodd" d="M10.6364 2C10.4569 2 10.2814 2.05313 10.1321 2.15268L8.76847 3.06177C8.40384 3.30486 8.26453 3.77349 8.43716 4.17629L9.67811 7.07187L7.02947 17.2251C6.94319 17.5558 7.0497 17.9069 7.30515 18.134L11.396 21.7704C11.7405 22.0765 12.2595 22.0765 12.604 21.7704L16.6948 18.134C16.9503 17.9069 17.0568 17.5558 16.9705 17.2251L14.3219 7.07186L15.5628 4.17629C15.7355 3.77349 15.5962 3.30486 15.2315 3.06177L13.8679 2.15268C13.7186 2.05313 13.5431 2 13.3636 2H10.6364ZM12.6613 7.90909H11.3387L8.92935 17.1451L12 19.8746L15.0707 17.1451L12.6613 7.90909ZM12.7642 6.09091L13.5938 4.15513L13.0884 3.81818H10.9116L10.4062 4.15513L11.2358 6.09091H12.7642Z" fill="#2E2926"/>
<path d="M12.7642 6.09091L13.5938 4.15513L13.0884 3.81818H10.9116L10.4062 4.15513L11.2358 6.09091H12.7642Z" fill="#2E2926"/>
<path d="M12.6613 7.90909H11.3387L8.92935 17.1451L12 19.8746L15.0707 17.1451L12.6613 7.90909Z" fill="#2E2926"/>
</svg>
