<svg width="24" height="24" viewBox="0 0 24 24" fill="none" xmlns="http://www.w3.org/2000/svg">
<path fill-rule="evenodd" clip-rule="evenodd" d="M1.5 16C1.5 15.1716 2.17157 14.5 3 14.5H21C21.8284 14.5 22.5 15.1716 22.5 16C22.5 16.8284 21.8284 17.5 21 17.5H3C2.17157 17.5 1.5 16.8284 1.5 16Z" fill="white"/>
<path fill-rule="evenodd" clip-rule="evenodd" d="M7.5 8C7.5 7.17157 8.17157 6.5 9 6.5L21 6.5C21.8284 6.5 22.5 7.17157 22.5 8C22.5 8.82843 21.8284 9.5 21 9.5L9 9.5C8.17157 9.5 7.5 8.82843 7.5 8Z" fill="white"/>
</svg>
