<svg width="32" height="32" viewBox="0 0 32 32" fill="none" xmlns="http://www.w3.org/2000/svg">
<path d="M20.8375 12.0146C18.5677 12.0146 16.5393 13.0715 16.5393 15.0242C16.5393 17.2635 20.1368 17.4181 20.1368 18.5431C20.1368 19.0168 19.5325 19.4408 18.5004 19.4408C17.0357 19.4408 15.9409 18.8483 15.9409 18.8483L15.4725 20.8188C15.4725 20.8188 16.7336 21.3192 18.408 21.3192C20.8896 21.3192 22.8424 20.2105 22.8424 18.2244C22.8424 15.8582 19.2299 15.7081 19.2299 14.664C19.2299 14.2929 19.726 13.8863 20.7551 13.8863C21.9163 13.8863 22.8637 14.3172 22.8637 14.3172L23.3221 12.4141C23.3221 12.4141 22.2913 12.0146 20.8375 12.0146V12.0146ZM0.0705872 12.1583L0.015625 12.4455C0.015625 12.4455 0.970556 12.6025 1.83063 12.9157C2.93804 13.2748 3.01693 13.4839 3.20343 14.1332L5.23578 21.1711H7.96016L12.1573 12.1583H9.43914L6.74225 18.2862L5.64175 13.0919C5.54083 12.4974 5.02961 12.1583 4.40385 12.1583H0.0705872V12.1583ZM13.2503 12.1583L11.118 21.1711H13.71L15.8347 12.1583H13.2503V12.1583ZM27.7066 12.1583C27.0815 12.1583 26.7504 12.4589 26.5074 12.9842L22.71 21.1711H25.4281L25.954 19.8066H29.2655L29.5853 21.1711H31.9836L29.8913 12.1583H27.7066V12.1583ZM28.0601 14.5933L28.8658 17.9753H26.7073L28.0601 14.5933V14.5933Z" fill="#1434CB"/>
</svg>
