<?xml version="1.0" standalone="no"?>
<!DOCTYPE svg PUBLIC "-//W3C//DTD SVG 20010904//EN"
 "http://www.w3.org/TR/2001/REC-SVG-20010904/DTD/svg10.dtd">
<svg version="1.0" xmlns="http://www.w3.org/2000/svg"
 width="700.000000pt" height="700.000000pt" viewBox="0 0 700.000000 700.000000"
 preserveAspectRatio="xMidYMid meet">
<metadata>
Created by potrace 1.14, written by Peter Selinger 2001-2017
</metadata>
<g transform="translate(0.000000,700.000000) scale(0.100000,-0.100000)"
fill="#000000" stroke="none">
<path d="M5916 5376 c3 -9 16 -16 28 -15 14 0 16 2 6 6 -8 3 -21 10 -28 16 -9
7 -11 6 -6 -7z"/>
<path d="M5828 5333 c6 -2 18 -2 25 0 6 3 1 5 -13 5 -14 0 -19 -2 -12 -5z"/>
<path d="M5995 5330 c-4 -6 5 -10 19 -10 14 0 26 5 26 10 0 6 -9 10 -19 10
-11 0 -23 -4 -26 -10z"/>
<path d="M6170 5326 c0 -2 7 -7 16 -10 8 -3 12 -2 9 4 -6 10 -25 14 -25 6z"/>
<path d="M5801 5273 c-17 -60 -13 -66 20 -28 31 35 33 65 5 65 -9 0 -19 -16
-25 -37z"/>
<path d="M5984 5299 c-3 -6 -2 -15 3 -20 13 -13 43 -1 43 17 0 16 -36 19 -46
3z"/>
<path d="M6160 5285 c0 -8 9 -15 20 -15 11 0 20 7 20 15 0 8 -9 15 -20 15 -11
0 -20 -7 -20 -15z"/>
<path d="M6360 5271 c0 -19 8 -35 22 -45 31 -22 43 -6 28 38 -15 47 -50 51
-50 7z"/>
<path d="M6150 5216 c0 -26 -2 -28 -27 -22 -16 4 -34 14 -41 24 -9 12 -15 13
-24 4 -18 -18 2 -33 51 -39 25 -4 41 -11 41 -19 0 -8 10 -14 24 -14 30 0 42
16 22 27 -8 4 -22 22 -30 38 l-16 30 0 -29z"/>
<path d="M6210 5210 c0 -28 3 -30 34 -30 48 0 52 14 12 39 -43 27 -46 27 -46
-9z"/>
<path d="M5843 5205 c-7 -8 -13 -19 -13 -25 0 -5 -5 -10 -11 -10 -5 0 -7 4 -4
10 3 6 -1 7 -10 3 -13 -5 -14 -7 -3 -14 18 -12 48 -11 48 2 0 5 5 7 10 4 6 -4
10 5 10 19 0 29 -9 32 -27 11z"/>
<path d="M5983 5205 c-7 -19 -5 -22 30 -30 20 -5 27 -3 27 7 0 33 -46 51 -57
23z"/>
<path d="M6351 5174 c0 -11 3 -14 6 -6 3 7 2 16 -1 19 -3 4 -6 -2 -5 -13z"/>
<path d="M5810 5007 c3 -3 37 -17 75 -32 51 -19 66 -22 54 -10 -9 9 -31 20
-50 24 -19 4 -45 11 -59 16 -14 4 -23 5 -20 2z"/>
<path d="M6213 4941 c-61 -3 -114 -9 -118 -12 -6 -7 110 -18 190 -18 34 0 58
6 75 19 l25 20 -30 -2 c-16 -1 -80 -4 -142 -7z"/>
<path d="M6311 4584 c0 -11 3 -14 6 -6 3 7 2 16 -1 19 -3 4 -6 -2 -5 -13z"/>
<path d="M6363 4583 c9 -2 23 -2 30 0 6 3 -1 5 -18 5 -16 0 -22 -2 -12 -5z"/>
<path d="M5985 4573 c-36 -9 -36 -19 0 -15 19 2 35 8 35 13 0 9 -3 10 -35 2z"/>
<path d="M6075 4570 c3 -5 30 -10 58 -9 41 1 47 3 27 9 -37 12 -92 12 -85 0z"/>
<path d="M5700 4438 c0 -49 5 -47 14 5 4 23 3 37 -4 37 -5 0 -10 -19 -10 -42z"/>
<path d="M6270 4150 c0 -202 -2 -222 -19 -239 -19 -19 -16 -37 8 -43 24 -6 39
120 40 338 1 126 -2 153 -14 158 -13 5 -15 -23 -15 -214z"/>
<path d="M6090 4016 c0 -73 -3 -89 -20 -106 -22 -22 -25 -36 -11 -44 13 -8 42
4 36 14 -3 5 -1 11 5 15 13 8 13 192 0 200 -6 4 -10 -25 -10 -79z"/>
<path d="M5915 3995 c-8 -58 -14 -72 -32 -80 -30 -13 -29 -25 1 -25 38 0 47
21 44 102 l-3 73 -10 -70z"/>
<path d="M5870 3853 c0 -21 3 -24 10 -13 8 12 10 12 15 -2 4 -9 2 -25 -4 -35
-10 -17 -10 -17 -11 2 -1 15 -5 11 -19 -15 -19 -35 -20 -35 -72 -30 l-54 5 53
3 c39 2 52 7 52 18 0 9 -9 18 -20 21 -11 3 -20 9 -20 14 0 5 -12 6 -26 3 -15
-4 -29 -2 -33 4 -4 6 -17 13 -30 15 -12 2 -27 10 -33 18 -7 10 -8 2 -4 -26 3
-22 6 -103 6 -181 l0 -140 73 8 c74 9 620 2 671 -8 28 -6 28 -7 23 -55 -10
-79 -35 -118 -143 -224 -79 -76 -109 -113 -128 -156 -23 -54 -26 -56 -68 -62
-25 -3 -55 -3 -67 0 -31 8 -40 -10 -30 -60 4 -23 4 -46 1 -52 -3 -5 -5 -70 -4
-145 1 -94 -2 -129 -8 -115 -7 13 -8 -136 -5 -435 3 -250 5 -459 5 -465 -1 -5
-3 -169 -6 -362 l-6 -353 21 0 c17 0 21 6 22 33 0 17 2 64 3 102 2 39 4 284 4
545 0 696 2 823 13 836 9 11 11 37 18 177 1 16 7 27 16 27 18 0 35 31 35 62 0
13 6 32 14 43 7 11 16 48 19 81 13 123 37 167 168 294 112 110 118 117 129
171 16 82 21 330 7 371 l-12 34 -45 -11 c-25 -6 -63 -8 -85 -5 -47 7 -104 -9
-98 -27 5 -14 -6 -16 -33 -6 -16 6 -16 7 2 14 17 7 17 8 -3 8 -13 1 -23 -5
-23 -13 0 -17 -21 -26 -46 -21 -11 2 -23 4 -27 4 -5 1 -6 10 -2 21 6 19 2 19
-92 15 -62 -3 -91 -1 -78 5 11 5 15 9 9 9 -7 1 -10 17 -9 41 2 36 0 40 -21 40
-20 0 -24 -5 -24 -27z m30 -93 c0 -5 -4 -10 -10 -10 -5 0 -10 5 -10 10 0 6 5
10 10 10 6 0 10 -4 10 -10z m70 0 c-20 -13 -43 -13 -35 0 3 6 16 10 28 10 18
0 19 -2 7 -10z m425 0 c3 -5 -1 -10 -9 -10 -9 0 -16 5 -16 10 0 6 4 10 9 10 6
0 13 -4 16 -10z"/>
<path d="M6172 3388 c-7 -7 -12 -20 -12 -30 0 -27 -17 -22 -28 10 -7 17 -11
21 -11 10 -1 -10 -6 -18 -12 -18 -5 0 -7 -4 -4 -10 10 -17 -5 -32 -20 -20 -9
8 -15 8 -20 0 -3 -6 -11 -8 -16 -5 -5 4 -9 1 -9 -5 0 -6 -5 -8 -12 -4 -8 5 -9
2 -4 -11 5 -15 4 -16 -9 -5 -8 7 -21 10 -29 7 -8 -3 -17 -1 -20 6 -2 7 -5 6
-5 -4 -1 -9 -8 -16 -16 -16 -8 0 -12 4 -10 8 3 3 -5 9 -16 12 -18 5 -20 2 -16
-19 4 -24 4 -24 -16 -7 -12 11 -17 12 -12 4 6 -10 4 -13 -7 -9 -27 11 -39 -6
-22 -30 8 -12 19 -20 24 -17 4 3 15 -6 24 -20 9 -14 22 -25 28 -25 6 0 19 -7
29 -16 9 -8 23 -17 31 -18 7 -1 23 -7 35 -14 15 -8 24 -9 28 -2 5 8 11 7 21 0
14 -13 80 -9 106 6 9 5 39 30 67 56 28 25 55 48 60 50 6 1 12 13 14 25 2 12 6
26 10 29 11 11 8 26 -3 19 -6 -3 -13 2 -17 11 -13 33 -36 55 -45 41 -12 -18
-10 -27 7 -27 18 0 18 -5 5 -31 -14 -25 -26 -24 -34 4 -3 12 -16 34 -29 50
-18 21 -26 24 -35 15z"/>
</g>
</svg>
