<svg width="24" height="24" viewBox="0 0 24 24" fill="none" xmlns="http://www.w3.org/2000/svg">
<path fill-rule="evenodd" clip-rule="evenodd" d="M16.198 10.2381L14.6916 12.0125C14.6272 12.1387 14.5345 12.2474 14.422 12.33L11.6808 15.5589C11.6849 15.5942 11.687 15.6302 11.687 15.6667V20.1905H13.4609C13.9508 20.1905 14.3479 20.5956 14.3479 21.0952C14.3479 21.5949 13.9508 22 13.4609 22H8.13924C7.64939 22 7.25229 21.5949 7.25229 21.0952C7.25229 20.5956 7.64939 20.1905 8.13924 20.1905H9.91314V15.6667C9.91314 15.6302 9.91525 15.5943 9.91935 15.559L7.17791 12.3299C7.06564 12.2474 6.97305 12.1387 6.90869 12.0127L3.21649 7.66373C2.9892 7.39601 2.93594 7.01761 3.08022 6.69546C3.22449 6.37332 3.53976 6.16667 3.88696 6.16667H13.9319C14.1501 4.38143 15.643 3 17.4522 3C19.4116 3 21 4.6203 21 6.61905C21 8.61779 19.4116 10.2381 17.4522 10.2381H16.198ZM14.8114 7.97619H5.8284L6.13294 8.3349C6.13831 8.34089 6.14362 8.34698 6.14886 8.35316L8.13319 10.6905H13.467L15.4513 8.35316C15.4561 8.34754 15.4609 8.34199 15.4658 8.33651L15.7717 7.97619H14.8428C14.8323 7.97638 14.8218 7.97638 14.8114 7.97619ZM11.9308 12.5L11.5534 12.9445C11.5489 12.9498 11.5444 12.9552 11.54 12.9606L10.8 13.8322L9.94988 12.8308C9.94479 12.8245 9.9396 12.8182 9.93432 12.812L9.66943 12.5H11.9308ZM15.7342 6.16667H17.7131C18.0603 6.16667 18.3756 6.37332 18.5199 6.69546C18.6642 7.01761 18.6109 7.39601 18.3836 7.66373L17.7569 8.40199C18.5914 8.25464 19.2261 7.51245 19.2261 6.61905C19.2261 5.61968 18.4319 4.80952 17.4522 4.80952C16.6256 4.80952 15.9311 5.38621 15.7342 6.16667Z" fill="#2E2926"/>
<path d="M5.8284 7.97619H14.8114C14.8218 7.97638 14.8323 7.97638 14.8428 7.97619H15.7717L15.4658 8.33651L15.4513 8.35316L13.467 10.6905H8.13319L6.14886 8.35316C6.14362 8.34698 6.13831 8.34089 6.13294 8.3349L5.8284 7.97619Z" fill="#2E2926"/>
</svg>
