<svg width="18" height="18" viewBox="0 0 18 18" fill="none" xmlns="http://www.w3.org/2000/svg">
<path d="M17.4736 0.526379C16.7716 -0.17546 15.6335 -0.17546 14.9315 0.526379L9.01126 6.44662L3.09102 0.526379C2.3856 -0.154947 1.26428 -0.145203 0.5708 0.548278C-0.122682 1.24176 -0.132426 2.36307 0.548899 3.0685L6.46914 8.98874L0.548899 14.909C0.0815428 15.3604 -0.105891 16.0288 0.0586376 16.6574C0.223166 17.2859 0.714054 17.7768 1.34263 17.9414C1.9712 18.1059 2.63964 17.9185 3.09102 17.4511L9.01126 11.5309L14.9315 17.4511C15.6369 18.1324 16.7582 18.1227 17.4517 17.4292C18.1452 16.7357 18.1549 15.6144 17.4736 14.909L11.5534 8.98874L17.4736 3.0685C18.1755 2.36645 18.1755 1.22843 17.4736 0.526379Z" fill="#2E2926"/>
</svg>
