<svg width="24" height="24" viewBox="0 0 24 24" fill="none" xmlns="http://www.w3.org/2000/svg">
<path d="M20.4736 3.52638C19.7716 2.82454 18.6335 2.82454 17.9315 3.52638L12.0113 9.44662L6.09102 3.52638C5.3856 2.84505 4.26428 2.8548 3.5708 3.54828C2.87732 4.24176 2.86757 5.36307 3.5489 6.0685L9.46914 11.9887L3.5489 17.909C3.08154 18.3604 2.89411 19.0288 3.05864 19.6574C3.22317 20.2859 3.71405 20.7768 4.34263 20.9414C4.9712 21.1059 5.63964 20.9185 6.09102 20.4511L12.0113 14.5309L17.9315 20.4511C18.6369 21.1324 19.7582 21.1227 20.4517 20.4292C21.1452 19.7357 21.1549 18.6144 20.4736 17.909L14.5534 11.9887L20.4736 6.0685C21.1755 5.36645 21.1755 4.22843 20.4736 3.52638Z" fill="white"/>
</svg>
