<svg width="16" height="16" viewBox="0 0 16 16" fill="none" xmlns="http://www.w3.org/2000/svg">
<path d="M13.6491 2.35092C13.181 1.88303 12.4224 1.88303 11.9543 2.35092L8.00751 6.29774L4.06068 2.35092C3.5904 1.8967 2.84285 1.9032 2.38053 2.36552C1.91821 2.82784 1.91172 3.57538 2.36593 4.04567L6.31276 7.99249L2.36593 11.9393C2.05436 12.2402 1.92941 12.6859 2.03909 13.1049C2.14878 13.524 2.47604 13.8512 2.89508 13.9609C3.31413 14.0706 3.75976 13.9456 4.06068 13.6341L8.00751 9.68724L11.9543 13.6341C12.4246 14.0883 13.1722 14.0818 13.6345 13.6195C14.0968 13.1571 14.1033 12.4096 13.6491 11.9393L9.70226 7.99249L13.6491 4.04567C14.117 3.57763 14.117 2.81895 13.6491 2.35092Z" fill="#A6AEB1"/>
</svg>
