<svg width="24" height="24" viewBox="0 0 24 24" fill="none" xmlns="http://www.w3.org/2000/svg">
<path fill-rule="evenodd" clip-rule="evenodd" d="M12.001 1C12.5533 1 13.001 1.44772 13.001 2V3.39925L14.2201 1.87534C14.5651 1.44408 15.1944 1.37416 15.6257 1.71917C16.0569 2.06418 16.1269 2.69347 15.7818 3.12473L14.6821 4.49947C17.5059 5.5946 19.501 8.3688 19.501 11.6C19.501 12.9282 19.0167 14.294 18.3741 15.5397C17.7246 16.7986 16.8703 18.017 16.0346 19.0712C15.1965 20.1286 14.3609 21.041 13.7361 21.6883C13.4231 22.0125 13.1615 22.2717 12.9771 22.4509C12.8848 22.5405 12.8117 22.6102 12.7611 22.6581L12.7022 22.7135L12.6861 22.7285L12.6815 22.7327L12.6801 22.734C12.6799 22.7342 12.6793 22.7348 12.001 22L11.3224 22.7345L11.3205 22.7327L11.3159 22.7285L11.2998 22.7135L11.2409 22.6581C11.1902 22.6102 11.1172 22.5405 11.0249 22.4509C10.8404 22.2717 10.5789 22.0125 10.2659 21.6883C9.64102 21.041 8.80548 20.1286 7.96732 19.0712C7.13168 18.017 6.27732 16.7986 5.62789 15.5397C4.98523 14.294 4.50098 12.9282 4.50098 11.6C4.50098 8.3688 6.4961 5.59461 9.31989 4.49947L8.22011 3.12473C7.8751 2.69347 7.94502 2.06418 8.37628 1.71917C8.80754 1.37416 9.43683 1.44408 9.78184 1.87534L11.001 3.39926V2C11.001 1.44772 11.4487 1 12.001 1ZM11.3224 22.7345C11.7054 23.0881 12.2962 23.0884 12.6793 22.7348L12.001 22C11.3227 22.7348 11.3225 22.7347 11.3224 22.7345ZM7.12824 9C6.81419 9.60866 6.60693 10.2837 6.53211 11H10.001C10.5533 11 11.001 10.5523 11.001 10C11.001 9.44771 10.5533 9 10.001 9H7.12824ZM8.21143 16C8.66557 16.6991 9.16904 17.3759 9.67137 18H11.001C11.5533 18 12.001 17.5523 12.001 17C12.001 16.4477 11.5533 16 11.001 16H8.21143ZM16.6589 14.5C17.0115 13.7978 17.2675 13.1233 17.3995 12.5H14.501C13.9487 12.5 13.501 12.9477 13.501 13.5C13.501 14.0523 13.9487 14.5 14.501 14.5H16.6589Z" fill="white"/>
</svg>
