<svg width="24" height="24" viewBox="0 0 24 24" fill="none" xmlns="http://www.w3.org/2000/svg">
<path d="M7 13.5849C6.44772 13.5849 6 13.1372 6 12.5849V11.4151C6 10.8628 6.44772 10.4151 7 10.4151H9.31336C9.86565 10.4151 10.3134 9.96738 10.3134 9.41509V7C10.3134 6.44771 10.7611 6 11.3134 6H12.6866C13.2389 6 13.6866 6.44772 13.6866 7V9.41509C13.6866 9.96738 14.1344 10.4151 14.6866 10.4151H17C17.5523 10.4151 18 10.8628 18 11.4151V12.5849C18 13.1372 17.5523 13.5849 17 13.5849H14.6866C14.1344 13.5849 13.6866 14.0326 13.6866 14.5849V17C13.6866 17.5523 13.2389 18 12.6866 18H11.3134C10.7611 18 10.3134 17.5523 10.3134 17V14.5849C10.3134 14.0326 9.86565 13.5849 9.31336 13.5849H7Z" fill="#F6A800"/>
</svg>
