<svg width="32" height="32" viewBox="0 0 32 32" fill="none" xmlns="http://www.w3.org/2000/svg">
<path d="M9.56228 11.8824C9.43911 11.9949 9.31594 12.1023 9.1979 12.22C8.77194 12.6241 8.44862 13.0897 8.33571 13.6729C8.18175 14.4811 8.34598 15.2229 8.83866 15.8879C9.085 16.2205 9.37753 16.4967 9.76757 16.6553C9.81375 16.6758 9.85994 16.6911 9.9164 16.7116C9.86508 16.8497 9.81889 16.9827 9.76757 17.1157C9.44938 17.8831 9.03881 18.5941 8.47428 19.208C8.37164 19.3206 8.24847 19.428 8.13043 19.5252C7.71986 19.8577 7.25797 19.9856 6.7345 19.8321C6.47276 19.7554 6.21616 19.6736 5.95955 19.5917C5.69268 19.5099 5.42581 19.4434 5.14355 19.4382C4.79456 19.428 4.47637 19.5354 4.15305 19.6531C3.90671 19.7452 3.6655 19.8373 3.41403 19.8935C3.01886 19.9856 2.65961 19.868 2.33116 19.6429C1.99757 19.4178 1.73584 19.1262 1.51002 18.8039C0.94036 17.9905 0.504132 17.1157 0.237263 16.1591C0.00118671 15.3099 -0.0655305 14.4453 0.067904 13.5705C0.185942 12.7981 0.47334 12.1023 1.01734 11.5294C1.58187 10.936 2.27471 10.6904 3.09071 10.7671C3.49614 10.8081 3.88105 10.9257 4.27109 11.0383C4.43532 11.0843 4.59955 11.1201 4.76377 11.161C4.99985 11.2224 5.23079 11.1917 5.45661 11.1252C5.7748 11.0332 6.09299 10.9257 6.41118 10.8336C6.88333 10.6955 7.36575 10.6546 7.85329 10.7467C8.48454 10.8695 8.98749 11.2071 9.40319 11.6828C9.45451 11.7442 9.50583 11.8005 9.55715 11.8619C9.55715 11.867 9.55715 11.8721 9.56228 11.8824Z" fill="#13130A"/>
<path d="M7.18719 8C7.19232 8.13812 7.21285 8.27113 7.20258 8.39902C7.15126 9.09987 6.87926 9.70352 6.39171 10.21C6.17103 10.4402 5.92982 10.6397 5.63216 10.7574C5.37556 10.8597 5.10869 10.8801 4.83669 10.9006C4.83155 10.9006 4.82642 10.8955 4.82129 10.8955C4.86235 9.33008 5.65269 8.31717 7.18719 8Z" fill="#13130A"/>
<path d="M12.9395 9.86237C13.5656 9.76005 14.3867 9.66797 15.4336 9.66797C16.7167 9.66797 17.6558 9.96468 18.2563 10.5018C18.8106 10.9776 19.139 11.7091 19.139 12.5993C19.139 13.5047 18.8722 14.2209 18.3641 14.7427C17.6764 15.4743 16.5576 15.8426 15.29 15.8426C14.8999 15.8426 14.5458 15.8273 14.243 15.7556V19.7715H12.9446V9.86237H12.9395ZM14.2379 14.6967C14.5201 14.7734 14.8794 14.799 15.3105 14.799C16.8758 14.799 17.8355 14.0419 17.8355 12.6555C17.8355 11.3306 16.8963 10.6911 15.4593 10.6911C14.8896 10.6911 14.4586 10.7371 14.2327 10.7934V14.6967H14.2379Z" fill="#13130A"/>
<path d="M23.8198 19.7699L23.7171 18.8644H23.6709C23.2655 19.4323 22.4906 19.9336 21.459 19.9336C19.9964 19.9336 19.2471 18.9054 19.2471 17.8669C19.2471 16.1275 20.8021 15.1709 23.5888 15.1863V15.0379C23.5888 14.4445 23.4246 13.3702 21.9466 13.3702C21.2742 13.3702 20.5712 13.5799 20.0631 13.9073L19.7654 13.0428C20.3607 12.654 21.2281 12.4033 22.1416 12.4033C24.3535 12.4033 24.8872 13.9073 24.8872 15.35V18.0459C24.8872 18.67 24.918 19.2788 25.0053 19.7699H23.8198V19.7699ZM23.6299 16.0968C22.198 16.0662 20.5712 16.3219 20.5712 17.7185C20.5712 18.5677 21.1408 18.9667 21.808 18.9667C22.7472 18.9667 23.3476 18.3733 23.5529 17.7594C23.5991 17.6264 23.6299 17.4781 23.6299 17.3451V16.0968Z" fill="#13130A"/>
<path d="M26.6418 12.5684L28.2225 16.8246C28.3867 17.3004 28.5664 17.8682 28.6844 18.2979H28.7152C28.8486 17.8682 28.9974 17.3157 29.1771 16.7939L30.6089 12.5684H31.9997L30.029 17.7045C29.0898 20.1754 28.4483 21.439 27.5502 22.2114C26.9087 22.7793 26.2672 22.9993 25.9387 23.0606L25.6103 21.9608C25.9387 21.8585 26.3698 21.6487 26.7599 21.3213C27.1191 21.0399 27.5656 20.5335 27.8633 19.8633C27.9248 19.7303 27.9659 19.6229 27.9659 19.5513C27.9659 19.4797 27.9351 19.3722 27.8787 19.2085L25.21 12.5684H26.6418Z" fill="#13130A"/>
</svg>
