<svg width="32" height="32" viewBox="0 0 32 32" fill="none" xmlns="http://www.w3.org/2000/svg">
<path d="M19.3527 9.57129H12.9756V21.1248H19.3527V9.57129Z" fill="#FF5F00"/>
<path d="M13.3801 15.3485C13.3801 13.0011 14.4733 10.919 16.1536 9.57177C14.9187 8.59196 13.3598 8 11.6592 8C7.63051 8 4.37109 11.2864 4.37109 15.3485C4.37109 19.4106 7.63051 22.697 11.6592 22.697C13.3598 22.697 14.9187 22.1051 16.1536 21.1253C14.4733 19.7985 13.3801 17.696 13.3801 15.3485Z" fill="#EB001B"/>
<path d="M27.9563 15.3485C27.9563 19.4106 24.6969 22.697 20.6682 22.697C18.9676 22.697 17.4088 22.1051 16.1738 21.1253C17.8744 19.7781 18.9474 17.696 18.9474 15.3485C18.9474 13.0011 17.8542 10.919 16.1738 9.57177C17.4088 8.59196 18.9676 8 20.6682 8C24.6969 8 27.9563 11.3068 27.9563 15.3485Z" fill="#F79E1B"/>
</svg>
