<svg width="28" height="28" viewBox="0 0 28 28" fill="none" xmlns="http://www.w3.org/2000/svg">
<path d="M13.9995 10.2083C11.9054 10.2083 10.2078 11.9059 10.2078 14C10.2078 16.0941 11.9054 17.7916 13.9995 17.7916C16.0936 17.7916 17.7911 16.0941 17.7911 14C17.7911 11.9059 16.0936 10.2083 13.9995 10.2083Z" fill="#2E2926"/>
<path fill-rule="evenodd" clip-rule="evenodd" d="M7.89728 3.59502C11.9201 3.14541 16.0789 3.14541 20.1017 3.59502C22.3165 3.84255 24.1029 5.58763 24.3629 7.81019C24.8438 11.9227 24.8438 16.0772 24.3629 20.1898C24.1029 22.4123 22.3165 24.1574 20.1017 24.4049C16.0789 24.8545 11.9201 24.8545 7.89728 24.4049C5.68248 24.1574 3.89609 22.4123 3.63614 20.1898C3.15514 16.0772 3.15514 11.9227 3.63614 7.81019C3.89609 5.58763 5.68248 3.84255 7.89728 3.59502ZM19.8328 6.99997C19.1885 6.99997 18.6661 7.52231 18.6661 8.16664C18.6661 8.81097 19.1885 9.33331 19.8328 9.33331C20.4771 9.33331 20.9995 8.81097 20.9995 8.16664C20.9995 7.52231 20.4771 6.99997 19.8328 6.99997ZM8.45781 14C8.45781 10.9394 10.9389 8.45831 13.9995 8.45831C17.0601 8.45831 19.5411 10.9394 19.5411 14C19.5411 17.0605 17.0601 19.5416 13.9995 19.5416C10.9389 19.5416 8.45781 17.0605 8.45781 14Z" fill="#2E2926"/>
</svg>
