<svg width="28" height="28" viewBox="0 0 28 28" fill="none" xmlns="http://www.w3.org/2000/svg">
<path d="M25.0874 21.4445H22.4256C21.4186 21.4445 21.1157 20.629 19.3096 18.8228C17.7333 17.3031 17.0674 17.1134 16.6679 17.1134C16.1169 17.1134 15.9655 17.2648 15.9655 18.0256V20.4192C15.9655 21.0668 15.7557 21.4463 14.0645 21.4463C12.4232 21.336 10.8316 20.8373 9.42075 19.9914C8.00992 19.1455 6.82024 17.9765 5.9497 16.5807C3.883 14.0083 2.44498 10.9892 1.75 7.76349C1.75 7.36396 1.90142 7.00273 2.66219 7.00273H5.32212C6.00626 7.00273 6.25255 7.3074 6.52073 8.00978C7.81239 11.8118 10.0162 15.1175 10.9102 15.1175C11.2532 15.1175 11.4028 14.9661 11.4028 14.1105V10.1954C11.2896 8.40932 10.341 8.2579 10.341 7.61207C10.3532 7.44173 10.4312 7.28283 10.5586 7.16908C10.686 7.05532 10.8527 6.99565 11.0233 7.00273H15.2047C15.7758 7.00273 15.9655 7.28733 15.9655 7.97147V13.2549C15.9655 13.8259 16.2118 14.0156 16.3833 14.0156C16.7263 14.0156 16.9908 13.8259 17.6184 13.1983C18.9663 11.5544 20.0677 9.72301 20.8877 7.76167C20.9715 7.52608 21.1301 7.32438 21.3392 7.18734C21.5484 7.05031 21.7967 6.98548 22.0461 7.00273H24.7079C25.5051 7.00273 25.6748 7.40227 25.5051 7.97147C24.5373 10.1396 23.3397 12.1977 21.933 14.1105C21.6466 14.5483 21.5317 14.7764 21.933 15.289C22.1976 15.6886 23.1298 16.4676 23.7574 17.2083C24.6694 18.118 25.4268 19.1705 25.9996 20.3243C26.2276 21.065 25.8463 21.4445 25.0874 21.4445Z" fill="#2E2926"/>
</svg>
