<svg width="107" height="66" viewBox="0 0 107 66" fill="none" xmlns="http://www.w3.org/2000/svg">
<g clip-path="url(#clip0_2726_61799)">
<path d="M82.7805 27.6826C80.8469 27.6826 80.5359 29.4424 80.5359 32.5558V34.8655C80.5359 37.979 80.8385 39.7387 82.7805 39.7387C84.7224 39.7387 85.025 37.979 85.025 34.8655V32.5558C85.025 29.4424 84.714 27.6826 82.7805 27.6826ZM39.772 40.974C38.2588 40.974 37.4854 41.1432 35.9217 41.1432C34.7196 41.1432 33.2568 40.974 32.0967 40.5002C31.4746 40.8555 31.3149 41.3801 31.3149 42.0146C31.3149 43.8505 33.8201 44.5697 36.5102 44.5697C38.9902 44.5697 41.4953 43.8759 41.4953 42.5222C41.4953 41.71 40.764 40.974 39.772 40.974ZM78.6528 0C64.7818 0 35.4173 8.73119 16.0652 18.6215C13.6273 19.8651 12.4924 21.5065 12.4924 24.0446V39.3073H14.2662C14.4091 39.3073 14.4763 39.4765 14.4763 39.6626C14.4763 39.8487 14.4091 40.0179 14.2662 40.0179H5.99402C5.8511 40.0179 5.78385 39.8487 5.78385 39.6626C5.78385 39.4765 5.85951 39.3073 5.99402 39.3073H7.76782V27.1581C7.76782 25.3983 6.70858 24.1884 4.97681 25.2883C-11.5171 37.6152 13.2237 67.0999 76.0215 65.9661C96.3404 65.6024 107 52.3279 107 35.0178C107 19.4167 102.259 0 78.6528 0ZM36.7456 45.1534C34.0302 45.1534 30.1043 44.2482 30.1043 41.7523C30.1043 40.7963 30.9198 40.2548 31.4998 40.2295C30.9114 39.891 30.4406 39.4342 30.18 38.825C29.5831 39.7726 28.4062 40.2548 27.2208 40.2548C25.5479 40.2548 23.8666 39.2988 23.8666 37.4037V29.6793C23.8666 28.5625 23.3033 27.9872 22.4459 27.9872C21.4791 27.9872 20.6973 28.4863 19.9154 29.3155V40.0179H15.6869V27.3949H19.4447C19.5876 27.3949 19.6801 27.5388 19.6801 27.6826V28.5625H19.8902C20.7393 27.7503 21.8994 27.1581 23.5051 27.1581C25.6572 27.1581 28.1119 28.2748 28.1119 31.5067V37.4037C28.1119 38.3597 28.5575 38.825 29.0367 38.825C29.4486 38.825 29.8605 38.4612 29.9614 37.7336C29.9614 37.7167 29.9614 37.7082 29.9614 37.6913C29.9698 37.5983 29.9782 37.5052 29.9782 37.3952C29.9782 37.3867 29.9866 37.3867 29.9866 37.3783C30.1127 36.4053 30.7684 35.1447 32.3741 34.4679C31.029 33.7826 30.4154 32.6404 30.4154 31.2106C30.4154 28.7655 32.2564 27.1496 36.4429 27.1496C37.3845 27.1496 38.2336 27.2427 38.9733 27.4119C38.9986 26.3459 39.234 25.0345 39.9149 24.4846C40.268 24.1715 40.8144 24.0361 41.3104 24.0361C42.3024 24.0361 43.2691 24.5861 43.2691 25.7029C43.2691 26.8196 42.4453 27.3865 41.5962 27.3865C40.7724 27.3865 39.9233 26.8196 39.9233 25.7029V25.6352C39.8981 25.6352 39.8056 25.8467 39.7804 25.8467C39.6375 26.2274 39.6122 26.8958 39.5954 27.5811C41.6046 28.1987 42.5294 29.5101 42.5294 31.2191C42.5294 33.6726 40.6631 35.2632 36.4598 35.2632C35.0895 35.2632 33.9546 35.094 33.0803 34.7894C32.1135 35.1193 31.9202 35.8554 31.9202 36.1684C31.9202 36.8622 32.433 37.0483 33.551 37.0483C34.8961 37.0483 36.8128 36.7184 38.5866 36.7184C41.5626 36.7184 43.5213 38.5966 43.5213 40.9486C43.5045 43.3006 41.5458 45.1534 36.7456 45.1534ZM63.1173 40.2548C61.0997 40.2548 59.1746 39.8149 58.4768 38.7066C57.9136 39.6964 56.7198 40.2548 55.5261 40.2548C54.181 40.2548 52.8611 39.5611 52.382 38.1651C51.432 39.6118 49.8768 40.2548 48.2459 40.2548C45.8584 40.2548 43.4961 38.7573 43.4961 35.8808V27.3949H47.4641C47.6322 27.3949 47.7499 27.4711 47.7499 27.6826V36.5492C47.7499 38.2835 48.8091 39.1634 49.8768 39.1634C50.9444 39.1634 52.0037 38.2835 52.0037 36.5492V27.3949H55.9212C56.1313 27.3949 56.249 27.488 56.249 27.6826V37.429C56.249 38.3851 56.7198 38.8335 57.2158 38.8335C57.7118 38.8335 58.2078 38.3851 58.2078 37.429C58.2078 37.4121 58.2162 37.3952 58.2246 37.3783C58.3927 36.2869 59.2754 35.72 60.2002 35.72C61.1922 35.72 62.2094 36.4138 62.2094 37.759C62.2094 38.4528 61.9235 39.1381 61.2174 39.5695C61.7134 39.6457 62.3523 39.7134 62.9912 39.7134C64.2185 39.7134 65.3787 39.4088 65.3787 38.072C65.3787 35.9315 58.6029 34.8148 58.6029 30.9399C58.6029 28.6809 60.7298 27.1581 63.9663 27.1581C66.4715 27.1581 68.8758 28.131 68.8758 29.747C68.8758 31.0329 67.9763 31.7944 66.8919 31.7944C65.8999 31.7944 64.9079 31.1006 64.9079 29.747C64.9079 28.9855 65.2105 28.3256 65.9503 27.9195C65.3114 27.801 64.6473 27.708 64.0588 27.708C62.9996 27.708 62.1925 28.0379 62.1925 29.2985C62.1925 32.5812 69.2373 32.2682 69.2373 36.2869C69.2373 39.045 66.068 40.2548 63.1173 40.2548ZM82.7805 40.2548C80.1408 40.2548 78.1484 39.155 77.0387 37.3952V37.4037C77.0387 39.3073 75.3658 40.2548 73.6845 40.2548C72.0115 40.2548 70.3302 39.2988 70.3302 37.4037V27.9872H68.7918C68.6741 27.9872 68.6068 27.8434 68.6068 27.6995C68.6068 27.5557 68.6825 27.3865 68.7918 27.3865H70.3302V24.2477L74.3234 22.3694C74.4158 22.3694 74.584 22.3948 74.584 22.4625V27.3865H77.0639C77.1816 27.3865 77.2489 27.5557 77.2489 27.6995C77.2489 27.8434 77.1564 27.9872 77.0639 27.9872H74.584V37.4037C74.584 38.3597 75.0295 38.825 75.5087 38.825C75.9795 38.825 76.4418 38.3343 76.4502 37.4037V36.1431C76.1896 35.3985 76.0551 34.5863 76.0551 33.7149C76.0551 29.9077 78.6023 27.1496 82.7889 27.1496C86.967 27.1496 89.5226 29.9077 89.5226 33.7149C89.5142 37.5221 86.9586 40.2548 82.7805 40.2548ZM94.4405 40.2548C91.9101 40.2548 89.531 39.5611 89.531 37.7336C89.531 36.4053 90.523 35.7116 91.5402 35.7116C92.5322 35.7116 93.5494 36.4053 93.5494 37.7505C93.5494 38.4443 93.2636 39.1296 92.5574 39.5611C93.0534 39.6372 93.6923 39.7049 94.3312 39.7049C95.5586 39.7049 96.7187 39.4003 96.7187 38.0636C96.7187 35.9231 89.9429 34.8063 89.9429 30.9314C89.9429 28.6725 92.0698 27.1496 95.3064 27.1496C97.8116 27.1496 100.216 28.1225 100.216 29.7385C100.216 31.0245 99.3164 31.7859 98.2319 31.7859C97.2399 31.7859 96.2479 31.0922 96.2479 29.7385C96.2479 28.9771 96.5506 28.3171 97.2904 27.911C96.6514 27.7926 95.9873 27.6995 95.3989 27.6995C94.3396 27.6995 93.5326 28.0295 93.5326 29.2901C93.5326 32.5727 100.577 32.2597 100.577 36.2784C100.561 39.045 97.3912 40.2548 94.4405 40.2548ZM36.4429 34.6709C37.6955 34.6709 38.0234 33.6726 38.0234 31.7436V30.6945C38.0234 28.7655 37.7208 27.7503 36.4429 27.7503C35.2156 27.7503 34.9045 28.774 34.9045 30.6945V31.7436C34.9045 33.698 35.2156 34.6709 36.4429 34.6709Z" fill="#F6A800"/>
</g>
<defs>
<clipPath id="clip0_2726_61799">
<rect width="107" height="66" fill="white"/>
</clipPath>
</defs>
</svg>
