<svg width="28" height="28" viewBox="0 0 28 28" fill="none" xmlns="http://www.w3.org/2000/svg">
<path d="M16.5663 3.35449C15.1353 3.35449 13.7628 3.92298 12.7509 4.9349C11.739 5.94681 11.1705 7.31926 11.1705 8.75033V11.7545H8.28301C8.13803 11.7545 8.02051 11.872 8.02051 12.017V15.9837C8.02051 16.1286 8.13803 16.2462 8.28301 16.2462H11.1705V24.3837C11.1705 24.5286 11.288 24.6462 11.433 24.6462H15.3997C15.5446 24.6462 15.6622 24.5286 15.6622 24.3837V16.2462H18.5753C18.6957 16.2462 18.8007 16.1642 18.8299 16.0473L19.8216 12.0807C19.863 11.915 19.7377 11.7545 19.5669 11.7545H15.6622V8.75033C15.6622 8.51053 15.7574 8.28055 15.927 8.11098C16.0966 7.94142 16.3265 7.84616 16.5663 7.84616H19.5997C19.7446 7.84616 19.8622 7.72863 19.8622 7.58366V3.61699C19.8622 3.47202 19.7446 3.35449 19.5997 3.35449H16.5663Z" fill="#2E2926"/>
</svg>
