<svg width="32" height="32" viewBox="0 0 32 32" fill="none" xmlns="http://www.w3.org/2000/svg">
<path d="M15.135 11.8948V15.083H17.1098C17.5765 15.083 17.9715 14.9223 18.2767 14.6097C18.5908 14.2971 18.7524 13.9221 18.7524 13.4845C18.7524 13.0558 18.5908 12.6896 18.2767 12.3771C17.9715 12.0555 17.5765 11.8948 17.1098 11.8948H15.135ZM15.135 16.2083V19.9056H13.9502V10.7695H17.0829C17.8817 10.7695 18.5549 11.0375 19.1115 11.5644C19.677 12.0913 19.9642 12.7343 19.9642 13.4934C19.9642 14.2704 19.6859 14.9134 19.1115 15.4313C18.5639 15.9493 17.8907 16.2083 17.0829 16.2083H15.135Z" fill="#5F6368"/>
<path d="M21.1575 17.9949C21.1575 18.2986 21.2921 18.5576 21.5524 18.763C21.8127 18.9684 22.1179 19.0666 22.468 19.0666C22.9617 19.0666 23.4105 18.8791 23.7964 18.5218C24.1824 18.1557 24.3799 17.727 24.3799 17.2358C24.0119 16.95 23.5002 16.7982 22.836 16.7982C22.3603 16.7982 21.9563 16.9143 21.6332 17.1465C21.319 17.3698 21.1575 17.6556 21.1575 17.9949ZM22.6834 13.4492C23.5541 13.4492 24.2452 13.6814 24.7479 14.1458C25.2506 14.6102 25.5019 15.2443 25.5019 16.057V19.915H24.3709V19.0488H24.3171C23.8323 19.7632 23.1771 20.1204 22.3692 20.1204C21.6781 20.1204 21.0946 19.915 20.6279 19.5042C20.1611 19.0934 19.9277 18.5844 19.9277 17.9681C19.9277 17.3251 20.1701 16.8072 20.6638 16.4231C21.1575 16.0391 21.8127 15.8516 22.6385 15.8516C23.3387 15.8516 23.9221 15.9766 24.3709 16.2356V15.9677C24.3709 15.5569 24.2093 15.2086 23.8862 14.9317C23.5631 14.6459 23.1771 14.503 22.7462 14.503C22.091 14.503 21.5614 14.7799 21.1754 15.3336L20.1342 14.6817C20.7176 13.86 21.5614 13.4492 22.6834 13.4492Z" fill="#5F6368"/>
<path d="M31.9993 13.6494L28.0498 22.6605H26.838L28.3011 19.5079L25.707 13.6494H26.9906L28.8666 18.1505H28.8936L30.7157 13.6494H31.9993Z" fill="#5F6368"/>
<path d="M10.3586 15.4096C10.3586 15.0434 10.3227 14.6862 10.2689 14.3379H5.28711V16.3562H8.14151C8.01585 17.026 7.64783 17.5797 7.08233 17.9548V19.2676H8.78779C9.78414 18.3567 10.3586 17.0082 10.3586 15.4096Z" fill="#4285F4"/>
<path d="M5.28686 20.5362C6.71407 20.5362 7.91686 20.0718 8.78755 19.268L7.08209 17.9552C6.60635 18.2767 5.99598 18.4553 5.28686 18.4553C3.90454 18.4553 2.73765 17.5355 2.32475 16.2852H0.56543V17.6337C1.43611 19.3662 3.22236 20.5362 5.28686 20.5362Z" fill="#34A853"/>
<path d="M2.32481 16.2946C2.2171 15.9731 2.16324 15.6427 2.16324 15.2854C2.16324 14.9371 2.22608 14.5978 2.32481 14.2763V12.9277H0.565495C0.206451 13.6422 0 14.437 0 15.2854C0 16.1338 0.206451 16.9376 0.565495 17.6431L2.32481 16.2946Z" fill="#FABB05"/>
<path d="M5.28686 12.115C6.06778 12.115 6.76792 12.3829 7.31546 12.9009L8.82345 11.4095C7.90789 10.5611 6.71406 10.0342 5.28686 10.0342C3.22236 10.0342 1.43611 11.213 0.56543 12.9277L2.31577 14.2762C2.73765 13.0349 3.91352 12.115 5.28686 12.115Z" fill="#E94235"/>
</svg>
