<svg width="32" height="32" viewBox="0 0 32 32" fill="none" xmlns="http://www.w3.org/2000/svg">
<path fill-rule="evenodd" clip-rule="evenodd" d="M28.7015 11.9033H22.5654C22.8953 13.9913 24.8747 15.9446 27.052 15.9446H31.9345C32.0005 15.7425 32.0005 15.4731 32.0005 15.271C32.0005 13.3851 30.5489 11.9033 28.7015 11.9033Z" fill="url(#paint0_linear_2726_61814)"/>
<path fill-rule="evenodd" clip-rule="evenodd" d="M23.0928 16.2812V21.3328H26.0619V18.6386H28.701C30.1526 18.6386 31.4062 17.6283 31.8021 16.2812H23.0928Z" fill="#4DB45F"/>
<path fill-rule="evenodd" clip-rule="evenodd" d="M12.5361 11.9033V21.3329H15.1753C15.1753 21.3329 15.8351 21.3329 16.165 20.6593C17.9465 17.0222 18.4743 15.9446 18.4743 15.9446H18.8042V21.3329H21.7733V11.9033H19.1341C19.1341 11.9033 18.4743 11.9707 18.1444 12.5769C16.6269 15.6751 15.8351 17.2916 15.8351 17.2916H15.5052V11.9033H12.5361Z" fill="#4DB45F"/>
<path fill-rule="evenodd" clip-rule="evenodd" d="M0 21.3329V11.9033H2.96908C2.96908 11.9033 3.82681 11.9033 4.28867 13.2504C5.4763 16.8202 5.60826 17.2916 5.60826 17.2916C5.60826 17.2916 5.87218 16.416 6.92785 13.2504C7.3897 11.9033 8.24744 11.9033 8.24744 11.9033H11.2165V21.3329H8.24744V16.2813H7.91754L6.26805 21.3329H4.94846L3.29898 16.2813H2.96908V21.3329H0Z" fill="#4DB45F"/>
<defs>
<linearGradient id="paint0_linear_2726_61814" x1="22.5484" y1="13.9239" x2="32.0005" y2="13.9239" gradientUnits="userSpaceOnUse">
<stop stop-color="#00B4E6"/>
<stop offset="1" stop-color="#088CCB"/>
</linearGradient>
</defs>
</svg>
