<svg width="24" height="24" viewBox="0 0 24 24" fill="none" xmlns="http://www.w3.org/2000/svg">
<path fill-rule="evenodd" clip-rule="evenodd" d="M18.0332 9.27273H9.19018V18.0188C9.19018 19.2602 10.099 20.1348 13.3435 20.18L13.6117 20.1818C17.0746 20.1818 18.0332 19.2938 18.0332 18.0188V9.27273ZM13.1636 11.4394C13.1125 10.9873 12.7387 10.6364 12.2852 10.6364C11.7968 10.6364 11.4009 11.0434 11.4009 11.5455V17.9091L11.4069 18.0151C11.458 18.4672 11.8317 18.8182 12.2852 18.8182C12.7736 18.8182 13.1695 18.4112 13.1695 17.9091V11.5455L13.1636 11.4394ZM15.8165 11.4394C15.7654 10.9873 15.3916 10.6364 14.9381 10.6364C14.4497 10.6364 14.0538 11.0434 14.0538 11.5455V17.9091L14.0598 18.0151C14.1109 18.4672 14.4846 18.8182 14.9381 18.8182C15.4265 18.8182 15.8224 18.4112 15.8224 17.9091V11.5455L15.8165 11.4394Z" fill="#2E2926"/>
<path fill-rule="evenodd" clip-rule="evenodd" d="M13.6113 2C14.6836 2 15.5156 2.48875 16.0874 3.27285C16.1699 3.38599 16.2431 3.49877 16.3078 3.60953L16.3327 3.65545L16.5204 3.63119C16.9369 3.58811 17.363 3.61619 17.7858 3.74116L17.9969 3.81183C18.4033 3.96419 18.776 4.20526 19.1006 4.53899C19.552 5.00306 19.82 5.58627 19.9345 6.24248C20.0452 6.8773 20.0077 7.52709 19.8815 8.15175L19.828 8.39181L19.8017 8.48818L19.8018 18.0188C19.8018 20.2921 18.0896 21.9276 13.895 21.9977L13.6117 22C9.21064 22 7.42158 20.3426 7.42158 18.0188L7.42205 17.5248C7.08814 17.5335 6.75195 17.524 6.42399 17.4907C5.24118 17.3705 4.35217 16.972 3.98552 16.0773L3.92775 15.9188L3.88809 15.7892L3.8092 15.4917C3.79609 15.4379 3.78299 15.3821 3.76991 15.3242L3.69156 14.9524L3.61334 14.5328L3.53507 14.0666L3.41718 13.283C3.40403 13.1904 3.39086 13.0961 3.37766 13C3.30589 12.4771 3.23712 11.9273 3.17247 11.3709L3.05577 10.3186L3.00447 9.81773C2.95589 9.31824 3.30876 8.88041 3.78138 8.82426L3.88438 8.81818L7.42149 8.81727L7.42223 8.54043C7.38618 8.43881 7.34737 8.31667 7.30928 8.17674C7.13656 7.54229 7.07312 6.88349 7.1918 6.23486C7.30434 5.61974 7.57691 5.06929 8.02532 4.62689L8.18133 4.48348C9.04935 3.74076 9.98374 3.51827 10.8597 3.63979L10.8942 3.64545L10.9147 3.60944C10.947 3.55406 10.9815 3.49818 11.0182 3.442L11.1351 3.27277C11.707 2.48872 12.539 2 13.6113 2ZM18.0332 9.27273H9.19018V18.0188C9.19018 19.2602 10.099 20.1348 13.3435 20.18L13.6117 20.1818C17.0746 20.1818 18.0332 19.2938 18.0332 18.0188V9.27273ZM7.42149 10.6355L4.86949 10.6364L4.92845 11.1541C4.97065 11.5173 5.0146 11.8773 5.05993 12.2279L5.16279 12.9888L5.23022 13.4489L5.32986 14.0697L5.39475 14.4333L5.45798 14.7535L5.5192 15.0277L5.57803 15.253L5.60728 15.3491C5.64304 15.4595 5.9779 15.6183 6.59796 15.6813C6.86064 15.708 7.14099 15.7146 7.42231 15.7057L7.42149 10.6355ZM13.6113 3.81818C13.1357 3.81818 12.807 4.01128 12.55 4.36359C12.4106 4.55467 12.3213 4.74971 12.2785 4.87869L12.2585 4.94759C12.1299 5.47661 11.5856 5.76333 11.1011 5.58283L10.9714 5.52723L10.8855 5.4991C10.4301 5.36359 9.94232 5.40867 9.44945 5.77199L9.31493 5.87908C9.10215 6.06138 8.98202 6.28615 8.92992 6.57095C8.88096 6.8385 8.89556 7.14432 8.95768 7.45507L18.203 7.45474C18.2408 7.14559 18.2417 6.83918 18.1936 6.56333C18.1392 6.25128 18.0265 6.00609 17.85 5.82464C17.7103 5.68101 17.5584 5.58273 17.391 5.52C17.0752 5.40159 16.7049 5.41075 16.3491 5.50574L16.2304 5.54087L16.17 5.56291C15.7006 5.76961 15.1671 5.52527 14.9936 5.04631L14.9638 4.94745C14.9347 4.82776 14.8396 4.59278 14.6724 4.36351C14.4155 4.01125 14.0868 3.81818 13.6113 3.81818Z" fill="#2E2926"/>
</svg>
