<svg width="24" height="24" viewBox="0 0 24 24" fill="none" xmlns="http://www.w3.org/2000/svg">
<path fill-rule="evenodd" clip-rule="evenodd" d="M7.73641 1.06673C8.09557 1.18614 8.35653 1.4981 8.41064 1.87271L9.11343 6.73872C9.96985 6.26785 10.9537 6 12 6C15.3137 6 18 8.68629 18 12C18 13.043 17.7339 14.0239 17.2658 14.8783L22.1889 15.5894C22.5635 15.6435 22.8754 15.9044 22.9948 16.2636C23.1143 16.6228 23.0207 17.0186 22.753 17.2862L17.2862 22.753C17.0186 23.0207 16.6228 23.1143 16.2636 22.9948C15.9044 22.8754 15.6435 22.5635 15.5894 22.1889L14.8783 17.2658C14.0239 17.7339 13.043 18 12 18C8.6863 18 6.00001 15.3137 6.00001 12C6.00001 10.9801 6.25446 10.0197 6.70334 9.17873L1.81118 8.47216C1.43657 8.41806 1.12462 8.15709 1.0052 7.79793C0.885788 7.43877 0.979386 7.04296 1.24702 6.77533L6.7138 1.30855C6.98144 1.04091 7.37724 0.947312 7.73641 1.06673ZM4.07273 6.77804L7.16282 7.22434L6.71652 4.13425L4.07273 6.77804ZM8.00001 12C8.00001 9.79086 9.79087 8 12 8C14.2092 8 16 9.79086 16 12C16 14.2091 14.2092 16 12 16C9.79087 16 8.00001 14.2091 8.00001 12ZM17.2835 19.9273L16.8372 16.8372L19.9273 17.2835L17.2835 19.9273Z" fill="#F6A800"/>
<path fill-rule="evenodd" clip-rule="evenodd" d="M12 8C9.79087 8 8.00001 9.79086 8.00001 12C8.00001 14.2091 9.79087 16 12 16C14.2092 16 16 14.2091 16 12C16 9.79086 14.2092 8 12 8ZM11 12C11 11.4477 10.5523 11 10 11C9.44773 11 9.00001 11.4477 9.00001 12C9.00001 13.6568 10.3432 15 12 15C12.5523 15 13 14.5523 13 14C13 13.4477 12.5523 13 12 13C11.4477 13 11 12.5523 11 12Z" fill="#F6A800"/>
</svg>
