<svg width="24" height="24" viewBox="0 0 24 24" fill="none" xmlns="http://www.w3.org/2000/svg">
<path d="M4.50004 8.02441L4.5 8L4.50004 8.02441Z" fill="#2E2926"/>
<path fill-rule="evenodd" clip-rule="evenodd" d="M6.69127 1.41182C6.87945 1.15308 7.18007 1 7.5 1H15.5C15.8199 1 16.1206 1.15308 16.3087 1.41183L16.3111 1.41515L16.3149 1.42032L16.3262 1.43615C16.3354 1.44912 16.3478 1.46691 16.3633 1.48935C16.3943 1.5342 16.4372 1.59771 16.4897 1.67853C16.5946 1.84002 16.7381 2.07141 16.9006 2.36179C17.2243 2.94054 17.6291 3.76443 17.9503 4.74468C18.259 5.68697 18.4967 6.79239 18.5 7.97506L18.5 8.0001L18.5 8.02414C18.4966 8.996 18.2879 9.92852 17.9157 10.7765C16.9667 12.9386 14.9414 14.5725 12.5 14.9278V21H16.5C17.0523 21 17.5 21.4477 17.5 22C17.5 22.5523 17.0523 23 16.5 23H6.5C5.94772 23 5.5 22.5523 5.5 22C5.5 21.4477 5.94772 21 6.5 21H10.5V14.9291C8.16484 14.595 6.20277 13.1085 5.20637 11.0675C4.75701 10.1469 4.50377 9.11363 4.50004 8.02441L4.5 8L4.50003 7.97736C4.50338 6.65344 4.80056 5.42498 5.16371 4.41241C5.48212 3.52465 5.85812 2.78378 6.15467 2.26397C6.30339 2.00327 6.43336 1.79602 6.52803 1.65134C6.5754 1.57894 6.61404 1.52205 6.64191 1.48179C6.65584 1.46165 6.66709 1.44566 6.6754 1.43396L6.68563 1.41963L6.68903 1.4149L6.6903 1.41316L6.69127 1.41182ZM7.71847 8.42536C7.26617 8.49678 6.8622 8.59906 6.54754 8.69314C6.51621 8.46679 6.5 8.23541 6.5 8C6.5 7.52294 6.54933 7.05373 6.63281 6.60169C6.87127 6.54587 7.13101 6.49334 7.40655 6.44984C8.68639 6.24776 10.4685 6.21502 12.0145 7.14261C12.9685 7.71502 14.1864 7.74776 15.2815 7.57484C15.7404 7.50239 16.1494 7.39819 16.466 7.303C16.4881 7.53278 16.5 7.76552 16.5 8.0001C16.5 8.48899 16.4268 8.96466 16.29 9.4163C16.073 9.46546 15.8395 9.51151 15.5935 9.55036C14.3136 9.75244 12.5315 9.78518 10.9855 8.85759C10.0315 8.28518 8.81364 8.25244 7.71847 8.42536Z" fill="#2E2926"/>
</svg>
