<svg width="24" height="24" viewBox="0 0 24 24" fill="none" xmlns="http://www.w3.org/2000/svg">
<path d="M12 2C12.4802 2 12.8695 2.38932 12.8695 2.86957V4.23913C12.8695 4.71938 12.4802 5.1087 12 5.1087C11.5197 5.1087 11.1304 4.71938 11.1304 4.23913V2.86957C11.1304 2.38932 11.5197 2 12 2Z" fill="#2E2926"/>
<path d="M19.071 4.92893C19.4106 5.26851 19.4106 5.81909 19.071 6.15868L18.1026 7.12709C17.763 7.46668 17.2124 7.46668 16.8728 7.1271C16.5333 6.78752 16.5333 6.23694 16.8728 5.89735L17.8412 4.92894C18.1808 4.58935 18.7314 4.58934 19.071 4.92893Z" fill="#2E2926"/>
<path d="M19.7609 11.1304C19.2806 11.1304 18.8913 11.5198 18.8913 12C18.8913 12.4803 19.2806 12.8696 19.7609 12.8696H21.1304C21.6107 12.8696 22 12.4803 22 12C22 11.5198 21.6107 11.1304 21.1304 11.1304H19.7609Z" fill="#2E2926"/>
<path d="M16.8728 16.8729C17.2124 16.5333 17.763 16.5333 18.1026 16.8729L19.071 17.8413C19.4106 18.1809 19.4106 18.7315 19.071 19.0711C18.7314 19.4107 18.1808 19.4107 17.8412 19.0711L16.8728 18.1027C16.5333 17.7631 16.5333 17.2125 16.8728 16.8729Z" fill="#2E2926"/>
<path d="M12.8695 19.7609C12.8695 19.2806 12.4802 18.8913 12 18.8913C11.5197 18.8913 11.1304 19.2806 11.1304 19.7609V21.1304C11.1304 21.6107 11.5197 22 12 22C12.4802 22 12.8695 21.6107 12.8695 21.1304V19.7609Z" fill="#2E2926"/>
<path d="M7.12714 16.8729C7.46672 17.2125 7.46672 17.7631 7.12713 18.1027L6.15872 19.0711C5.81913 19.4107 5.26856 19.4107 4.92897 19.0711C4.58939 18.7315 4.5894 18.1809 4.92898 17.8413L5.89739 16.8729C6.23698 16.5333 6.78756 16.5334 7.12714 16.8729Z" fill="#2E2926"/>
<path d="M2.86956 11.1304C2.38932 11.1304 2 11.5198 2 12C2 12.4803 2.38932 12.8696 2.86956 12.8696H4.23913C4.71937 12.8696 5.10869 12.4803 5.10869 12C5.10869 11.5198 4.71937 11.1304 4.23913 11.1304H2.86956Z" fill="#2E2926"/>
<path d="M4.92898 4.92893C5.26856 4.58935 5.81914 4.58935 6.15873 4.92893L7.12713 5.89734C7.46672 6.23693 7.46672 6.78751 7.12713 7.12709C6.78755 7.46668 6.23697 7.46668 5.89739 7.12709L4.92898 6.15868C4.58939 5.8191 4.58939 5.26852 4.92898 4.92893Z" fill="#2E2926"/>
<path d="M5.91304 12C5.91304 8.63828 8.63826 5.91305 12 5.91305C15.3617 5.91305 18.0869 8.63828 18.0869 12C18.0869 15.3617 15.3617 18.087 12 18.087C8.63826 18.087 5.91304 15.3617 5.91304 12Z" fill="#2E2926"/>
</svg>
